<svg width="20" height="22" viewBox="0 0 20 22" fill="none" xmlns="http://www.w3.org/2000/svg">
<path fill-rule="evenodd" clip-rule="evenodd" d="M2.96578 4.03367C4.97033 3.83122 6.97512 3.72998 8.98005 3.72998C12.3454 3.72998 15.7201 3.90127 19.074 4.23364C19.4862 4.27448 19.7872 4.64175 19.7464 5.05394C19.7055 5.46614 19.3383 5.76717 18.9261 5.72632C15.62 5.39869 12.2947 5.22998 8.98005 5.22998C7.02535 5.22998 5.07051 5.3287 3.11543 5.52618L3.11323 5.5264L1.07323 5.7264C0.660996 5.76682 0.294048 5.4654 0.253633 5.05316C0.213218 4.64092 0.514639 4.27397 0.926876 4.23356L2.96578 4.03367Z" fill="#3A3A3A"/>
<path fill-rule="evenodd" clip-rule="evenodd" d="M7.4597 2.78456L7.23976 4.09421C7.17116 4.50271 6.7844 4.77824 6.3759 4.70964C5.96741 4.64104 5.69187 4.25428 5.76048 3.84578L5.98048 2.53579C5.98432 2.51297 5.98828 2.48908 5.99228 2.46487C6.06114 2.04899 6.16216 1.43887 6.56885 0.977691C7.04291 0.440117 7.76621 0.25 8.69012 0.25H11.3101C12.2453 0.25 12.9678 0.455399 13.4391 0.998446C13.8463 1.46776 13.9448 2.08006 14.0106 2.48891C14.0138 2.5088 14.0169 2.52822 14.02 2.54711L14.2396 3.84486C14.3087 4.25326 14.0337 4.64037 13.6253 4.70949C13.2169 4.7786 12.8297 4.50355 12.7606 4.09514L12.5399 2.79069C12.4562 2.27767 12.4033 2.09352 12.3062 1.98155C12.2524 1.9196 12.065 1.75 11.3101 1.75H8.69012C7.92402 1.75 7.74232 1.91488 7.69389 1.96981C7.60177 2.07427 7.54978 2.24976 7.4597 2.78456Z" fill="#3A3A3A"/>
<path fill-rule="evenodd" clip-rule="evenodd" d="M16.8987 7.39123C17.3121 7.41791 17.6255 7.77463 17.5989 8.18799L16.9486 18.2621L16.9473 18.2811C16.9209 18.6573 16.8919 19.0711 16.8144 19.456C16.734 19.8552 16.5923 20.2765 16.3052 20.6503C15.704 21.433 14.681 21.7497 13.2104 21.7497H6.79042C5.31985 21.7497 4.29679 21.433 3.69562 20.6503C3.40852 20.2765 3.26682 19.8552 3.18643 19.456C3.1089 19.0711 3.07993 18.6573 3.05358 18.2811L3.05196 18.258L2.40198 8.18799C2.37529 7.77463 2.68875 7.41791 3.10211 7.39123C3.51546 7.36455 3.87218 7.67801 3.89886 8.09136L4.54858 18.1573C4.54863 18.1579 4.54868 18.1586 4.54873 18.1593C4.57695 18.5621 4.60084 18.8815 4.6569 19.1599C4.71151 19.431 4.78732 19.6091 4.88522 19.7366C5.05404 19.9564 5.47098 20.2497 6.79042 20.2497H13.2104C14.5299 20.2497 14.9468 19.9564 15.1156 19.7366C15.2135 19.6091 15.2893 19.431 15.3439 19.1599C15.4 18.8815 15.4239 18.5621 15.4521 18.1593C15.4522 18.1586 15.4522 18.1579 15.4523 18.1573L16.102 8.09136C16.1287 7.67801 16.4854 7.36455 16.8987 7.39123Z" fill="#3A3A3A"/>
<path fill-rule="evenodd" clip-rule="evenodd" d="M7.58008 15.5C7.58008 15.0858 7.91586 14.75 8.33008 14.75H11.6601C12.0743 14.75 12.4101 15.0858 12.4101 15.5C12.4101 15.9142 12.0743 16.25 11.6601 16.25H8.33008C7.91586 16.25 7.58008 15.9142 7.58008 15.5Z" fill="#3A3A3A"/>
<path fill-rule="evenodd" clip-rule="evenodd" d="M6.75 11.5C6.75 11.0858 7.08579 10.75 7.5 10.75H12.5C12.9142 10.75 13.25 11.0858 13.25 11.5C13.25 11.9142 12.9142 12.25 12.5 12.25H7.5C7.08579 12.25 6.75 11.9142 6.75 11.5Z" fill="#3A3A3A"/>
</svg>
